<?xml version="1.0" encoding="UTF-8"?>
<!-- Generator: Adobe Illustrator 21.1.0, SVG Export Plug-In . SVG Version: 6.00 Build 0)  -->
<svg version="1.1" id="Icons" xmlns="http://www.w3.org/2000/svg" xmlns:xlink="http://www.w3.org/1999/xlink" x="0px" y="0px" viewBox="0 0 48 48" style="enable-background:new 0 0 48 48;" xml:space="preserve"><script xmlns="" id="__gaOptOutExtension"/>
<style type="text/css">
	.st0{opacity:0.15;fill:#45413C;}
	.st1{fill:#DAEDF7;stroke:#45413C;stroke-linecap:round;stroke-linejoin:round;stroke-miterlimit:10;}
	.st2{fill:#656769;}
	.st3{fill:#87898C;}
	.st4{fill:none;stroke:#45413C;stroke-linecap:round;stroke-linejoin:round;stroke-miterlimit:10;}
	.st5{fill:#DAEDF7;}
	.st6{fill:#E8F4FA;}
	.st7{fill:#FFFFFF;}
	.st8{fill:#E0E0E0;}
	.st9{fill:#00B8F0;}
	.st10{fill:#FF6242;stroke:#45413C;stroke-linecap:round;stroke-linejoin:round;stroke-miterlimit:10;}
	.st11{fill:#FFE500;stroke:#45413C;stroke-linecap:round;stroke-linejoin:round;stroke-miterlimit:10;}
	.st12{fill:#00DBA8;stroke:#45413C;stroke-linecap:round;stroke-linejoin:round;stroke-miterlimit:10;}
	.st13{fill:#BF8DF2;stroke:#45413C;stroke-linecap:round;stroke-linejoin:round;stroke-miterlimit:10;}
	.st14{fill:#00B8F0;stroke:#45413C;stroke-linecap:round;stroke-linejoin:round;stroke-miterlimit:10;}
	.st15{fill:#87898C;stroke:#45413C;stroke-linecap:round;stroke-linejoin:round;stroke-miterlimit:10;}
	.st16{fill:#FF6242;}
	.st17{fill:#E04122;}
	.st18{fill:#9CEB60;}
	.st19{fill:#6DD627;}
	.st20{fill:#FF866E;}
	.st21{fill:#F0F0F0;}
	.st22{fill:#009FD9;}
	.st23{fill:#656769;stroke:#45413C;stroke-linecap:round;stroke-linejoin:round;stroke-miterlimit:10;}
	.st24{fill:#ADC4D9;}
	.st25{fill:#8CA4B8;}
	.st26{fill:#BDBEC0;}
	.st27{fill:#C0DCEB;stroke:#45413C;stroke-linecap:round;stroke-linejoin:round;stroke-miterlimit:10;}
	.st28{fill:#4ACFFF;}
	.st29{fill:#FFFFFF;stroke:#45413C;stroke-linecap:round;stroke-linejoin:round;stroke-miterlimit:10;}
	.st30{fill:#C0DCEB;}
	.st31{fill:#FFAA54;stroke:#45413C;stroke-linecap:round;stroke-linejoin:round;stroke-miterlimit:10;}
	.st32{fill:#FF8A14;}
	.st33{fill:#FFAA54;}
	.st34{fill:#6DD627;stroke:#45413C;stroke-linecap:round;stroke-linejoin:round;stroke-miterlimit:10;}
	.st35{fill:#DEBB7E;}
	.st36{fill:#F0D5A8;}
	.st37{fill:none;stroke:#45413C;stroke-miterlimit:10;}
	.st38{fill:#FFE500;}
	.st39{fill:#FFF48C;}
	.st40{fill:#FFF48C;stroke:#45413C;stroke-linecap:round;stroke-linejoin:round;stroke-miterlimit:10;}
	.st41{fill:#FF8A14;stroke:#45413C;stroke-linecap:round;stroke-linejoin:round;stroke-miterlimit:10;}
	.st42{fill:#525252;}
	.st43{fill:#00F5BC;}
	.st44{fill:#8CFFE4;}
	.st45{fill:#00DBA8;}
	.st46{fill:#EBCB00;}
	.st47{fill:#FF866E;stroke:#45413C;stroke-linecap:round;stroke-linejoin:round;stroke-miterlimit:10;}
	.st48{fill:#FFCC99;}
	.st49{fill:#45413C;stroke:#45413C;stroke-linecap:round;stroke-linejoin:round;stroke-miterlimit:10;}
	.st50{fill:#C8FFA1;}
	.st51{fill:#BDBEC0;stroke:#45413C;stroke-linecap:round;stroke-linejoin:round;stroke-miterlimit:10;}
	.st52{fill:#80DDFF;}
	.st53{fill:#4ACFFF;stroke:#45413C;stroke-linecap:round;stroke-linejoin:round;stroke-miterlimit:10;}
	.st54{fill:#FFFCE5;}
	.st55{fill:#FFFACF;}
	.st56{fill:#627B8C;}
	.st57{fill:#BF8256;}
	.st58{fill:#DEA47A;}
	.st59{fill:#BF8256;stroke:#45413C;stroke-linecap:round;stroke-linejoin:round;stroke-miterlimit:10;}
	.st60{fill:#DEBB7E;stroke:#45413C;stroke-linecap:round;stroke-linejoin:round;stroke-miterlimit:10;}
	.st61{fill:#B89558;}
	.st62{fill:#B8ECFF;}
	.st63{fill:#F7E5C6;}
	.st64{fill:#FFF5E3;}
	.st65{fill:#915E3A;}
	.st66{fill:#45413C;stroke:#45413C;stroke-miterlimit:10;}
	.st67{fill:#FFB0CA;stroke:#45413C;stroke-linecap:round;stroke-linejoin:round;stroke-miterlimit:10;}
	.st68{fill:#FF87AF;stroke:#45413C;stroke-linecap:round;stroke-linejoin:round;stroke-miterlimit:10;}
	.st69{fill:#E5FEFF;}
	.st70{fill:#A6FBFF;}
	.st71{fill:#FFB0CA;}
	.st72{fill:#FF87AF;}
	.st73{fill:none;stroke:#45413C;stroke-linecap:round;stroke-miterlimit:10;}
	.st74{fill:#BF8DF2;}
	.st75{fill:#DABFF5;}
	.st76{fill:#4AEFF7;}
	.st77{fill:#00DFEB;}
	.st78{fill:#FFCEBF;}
	.st79{fill:#FF6196;stroke:#45413C;stroke-linecap:round;stroke-linejoin:round;stroke-miterlimit:10;}
	.st80{fill:#00DFEB;stroke:#45413C;stroke-linecap:round;stroke-linejoin:round;stroke-miterlimit:10;}
	.st81{fill:#FF6196;}
	.st82{fill:#EBCB00;stroke:#45413C;stroke-linecap:round;stroke-linejoin:round;stroke-miterlimit:10;}
	.st83{fill:#00F5BC;stroke:#45413C;stroke-linecap:round;stroke-linejoin:round;stroke-miterlimit:10;}
	.st84{fill:#4AEFF7;stroke:#45413C;stroke-linecap:round;stroke-linejoin:round;stroke-miterlimit:10;}
	.st85{fill:#46B000;}
	.st86{fill:#E0366F;}
	.st87{fill:#E0366F;stroke:#45413C;stroke-linecap:round;stroke-linejoin:round;stroke-miterlimit:10;}
	.st88{fill:none;stroke:#E04122;stroke-linecap:round;stroke-linejoin:round;stroke-miterlimit:10;}
	.st89{fill:#FFA694;}
	.st90{fill:#EDDBFF;stroke:#45413C;stroke-linecap:round;stroke-linejoin:round;stroke-miterlimit:10;}
	.st91{fill:none;stroke:#BF8DF2;stroke-linecap:round;stroke-linejoin:round;stroke-miterlimit:10;}
	.st92{fill:#EDDBFF;}
	.st93{fill:#DABFF5;stroke:#45413C;stroke-linecap:round;stroke-linejoin:round;stroke-miterlimit:10;}
	.st94{fill:#E04122;stroke:#45413C;stroke-linecap:round;stroke-linejoin:round;stroke-miterlimit:10;}
	.st95{fill:#EB6D00;}
	.st96{fill:none;stroke:#45413C;stroke-width:1.0064;stroke-linecap:round;stroke-linejoin:round;stroke-miterlimit:10;}
	.st97{fill:#915E3A;stroke:#45413C;stroke-linecap:round;stroke-linejoin:round;stroke-miterlimit:10;}
	.st98{fill:#E0E0E0;stroke:#45413C;stroke-linecap:round;stroke-linejoin:round;stroke-miterlimit:10;}
	.st99{fill:#F0F0F0;stroke:#45413C;stroke-linecap:round;stroke-linejoin:round;stroke-miterlimit:10;}
	.st100{fill:#46B000;stroke:#45413C;stroke-linecap:round;stroke-linejoin:round;stroke-miterlimit:10;}
	.st101{fill:#4F4B45;}
	.st102{fill:#FFDCD1;}
	.st103{fill:#8CA4B8;stroke:#45413C;stroke-linecap:round;stroke-linejoin:round;stroke-miterlimit:10;}
	.st104{fill:#E8F4FA;stroke:#45413C;stroke-linecap:round;stroke-linejoin:round;stroke-miterlimit:10;}
	.st105{fill:none;stroke:#48CF3E;stroke-linecap:round;stroke-linejoin:round;stroke-miterlimit:10;}
	.st106{fill:none;stroke:#FF4064;stroke-linecap:round;stroke-linejoin:round;stroke-miterlimit:10;}
	.st107{fill:none;stroke:#FFB700;stroke-linecap:round;stroke-linejoin:round;stroke-miterlimit:10;}
	.st108{fill:none;stroke:#00AED9;stroke-linecap:round;stroke-linejoin:round;stroke-miterlimit:10;}
	.st109{fill:#C0DCEB;stroke:#45413C;stroke-miterlimit:10;}
	.st110{fill:#525252;stroke:#45413C;stroke-linecap:round;stroke-linejoin:round;stroke-miterlimit:10;}
	.st111{fill:#FFF5E3;stroke:#45413C;stroke-linecap:round;stroke-linejoin:round;stroke-miterlimit:10;}
	.st112{fill:#FFFFFF;stroke:#45413C;stroke-linejoin:round;stroke-miterlimit:10;}
	.st113{fill:#F0C2A1;}
	.st114{fill:#DEA47A;stroke:#45413C;stroke-linecap:round;stroke-linejoin:round;stroke-miterlimit:10;}
	.st115{fill:#F0C2A1;stroke:#45413C;stroke-linecap:round;stroke-linejoin:round;stroke-miterlimit:10;}
	.st116{fill:#FFFEF2;}
	.st117{fill:#9CEB60;stroke:#45413C;stroke-linecap:round;stroke-linejoin:round;stroke-miterlimit:10;}
	.st118{fill:#9F5AE5;stroke:#45413C;stroke-linecap:round;stroke-linejoin:round;stroke-miterlimit:10;}
	.st119{fill:#627B8C;stroke:#45413C;stroke-linecap:round;stroke-linejoin:round;stroke-miterlimit:10;}
	.st120{fill:#FFFACF;stroke:#45413C;stroke-linecap:round;stroke-linejoin:round;stroke-miterlimit:10;}
</style>
<g id="XMLID_16533_">
	<ellipse id="XMLID_16552_" class="st0" cx="24" cy="45.5" rx="12" ry="1.5"/>
	<path id="XMLID_16551_" class="st53" d="M32.2,28.5c0,0-1.2,0.9-2,2.5c-0.8,1.7-0.5,3.1-0.5,3.1l2.5-1.1V28.5z"/>
	<path id="XMLID_16550_" class="st53" d="M39.8,28.5c0,0,1.2,0.9,2,2.5c0.8,1.7,0.5,3.1,0.5,3.1l-2.5-1.1V28.5z"/>
	<path id="XMLID_16549_" class="st3" d="M18.4,45.4L18.4,45.4c-1.2,0.3-2.4-0.3-2.7-1.5l-2.8-9.6c-0.1-0.5,0.1-0.9,0.6-1.1l2.5-0.7   c0.5-0.1,0.9,0.1,1.1,0.6l2.8,9.6C20.2,43.9,19.5,45.1,18.4,45.4z"/>
	<path id="XMLID_16548_" class="st26" d="M19.8,42.7L17,33.1c-0.1-0.5-0.6-0.7-1.1-0.6l-1.3,0.4c0,0.1,0.1,0.1,0.1,0.2l3.1,10.7   c0.2,0.6,0.1,1.2-0.2,1.7c0.2,0,0.5,0,0.7-0.1C19.5,45.1,20.2,43.9,19.8,42.7z"/>
	<path id="XMLID_16547_" class="st4" d="M18.4,45.4L18.4,45.4c-1.2,0.3-2.4-0.3-2.7-1.5l-2.8-9.6c-0.1-0.5,0.1-0.9,0.6-1.1l2.5-0.7   c0.5-0.1,0.9,0.1,1.1,0.6l2.8,9.6C20.2,43.9,19.5,45.1,18.4,45.4z"/>
	<path class="st6" d="M36.5,11.3C34,4,26.7-0.1,19.3,2c-7.6,2.2-12,10.2-9.8,17.8l3.9,13.4l2.5-0.7l-3.9-13.2   c-1.9-6.3,1.8-13,8.1-14.9c6.1-1.8,12.9,1.2,15,7.2c0.1,0.3,0.5,0.5,0.8,0.4C36.4,12,36.6,11.6,36.5,11.3z"/>
	<g id="XMLID_16545_">
		<path id="XMLID_16546_" class="st7" d="M19.3,3.5c7.2-2.1,14.3,1.7,16.9,8.5c0.2-0.2,0.4-0.5,0.3-0.7C34,4,26.7-0.1,19.3,2    C12.7,3.9,8.6,10,9,16.5C9.3,10.6,13.2,5.2,19.3,3.5z"/>
	</g>
	<path class="st4" d="M36.5,11.3C34,4,26.7-0.1,19.3,2c-7.6,2.2-12,10.2-9.8,17.8l3.9,13.4l2.5-0.7l-3.9-13.2   c-1.9-6.3,1.8-13,8.1-14.9c6.1-1.8,12.9,1.2,15,7.2c0.1,0.3,0.5,0.5,0.8,0.4C36.4,12,36.6,11.6,36.5,11.3z"/>
	
		<ellipse id="XMLID_16544_" transform="matrix(0.9596 -0.2814 0.2814 0.9596 -7.9602 6.0952)" class="st30" cx="17.2" cy="30.8" rx="3" ry="3"/>
	<path id="XMLID_16543_" class="st5" d="M16.4,29.1c1.6-0.5,3.3,0.5,3.8,2.1c0,0.1,0,0.1,0,0.2c0.1-0.5,0.1-1,0-1.5   c-0.5-1.6-2.2-2.5-3.8-2.1c-1.5,0.5-2.4,2-2.1,3.6C14.5,30.4,15.3,29.5,16.4,29.1z"/>
	
		<ellipse id="XMLID_16542_" transform="matrix(0.9596 -0.2814 0.2814 0.9596 -7.9602 6.0952)" class="st4" cx="17.2" cy="30.8" rx="3" ry="3"/>
	
		<ellipse id="XMLID_16541_" transform="matrix(0.9596 -0.2814 0.2814 0.9596 -7.9602 6.0952)" class="st11" cx="17.2" cy="30.8" rx="1.3" ry="1.3"/>
	<line id="XMLID_16540_" class="st4" x1="36" y1="12.1" x2="36" y2="24.9"/>
	<path id="XMLID_16539_" class="st28" d="M39.6,39.4l-2-3.3c1.2-0.9,2.7-2.5,2.7-5.2c0-4.6-4.2-6-4.2-6s-4.2,1.2-4.2,6   c0,2.8,1.4,4.4,2.6,5.2l-2.1,3.2H39.6z"/>
	<g id="XMLID_16537_">
		<path id="XMLID_16538_" class="st52" d="M33.5,28.8c1.4-1.4,3.6-1.4,5,0c0.7,0.7,1.4,1.8,1.6,3.2c0.1-0.4,0.1-0.7,0.1-1.2    c0-4.6-4.2-6-4.2-6s-4.2,1.2-4.2,6c0,0.4,0,0.8,0.1,1.2C32.1,30.6,32.8,29.6,33.5,28.8z"/>
	</g>
	<path id="XMLID_16536_" class="st4" d="M39.6,39.4l-2-3.3c1.2-0.9,2.7-2.5,2.7-5.2c0-4.6-4.2-6-4.2-6s-4.2,1.2-4.2,6   c0,2.8,1.4,4.4,2.6,5.2l-2.1,3.2H39.6z"/>
	<circle id="XMLID_16535_" class="st101" cx="36.9" cy="28.9" r="0.6"/>
	<path id="XMLID_16534_" class="st4" d="M31.8,30.9c0,0,1.6,1.2,4.2,1.2c2.6,0,4.3-1.2,4.3-1.2"/>
</g>
</svg>